<svg width="20" height="34" viewBox="0 0 20 34" fill="none" xmlns="http://www.w3.org/2000/svg">
<path fill-rule="evenodd" clip-rule="evenodd" d="M1.86047 0H0V26.9767H1.86047V25.1163H3.72093V23.2558H5.5814V21.3953H7.44186V25.1163H9.30233V28.8372H11.1628V32.5581H13.0233V33.9535H16.7442V32.5581H18.6047V28.8372H16.7442V25.1163H14.8837V21.3953H13.0233V20H20V18.1395H18.6047V16.2791H16.7442V14.4186H14.8837V12.5581H13.0233V10.6977H11.1628V8.83721H9.30233V6.97674H7.44186V5.11628H5.5814V3.25581H3.72093V1.39535H1.86047V0ZM3.72093 3.25581V5.11628H5.5814V6.97674H7.44186V8.83721H9.30233V10.6977H11.1628V12.5581H13.0233V14.4186H14.8837V16.2791H16.7442V18.1395H11.1628V21.3953H13.0233V25.1163H14.8837V28.8372H16.7442V32.5581H13.0233V28.8372H11.1628V25.1163H9.30233V21.3953H7.44186V19.5349H5.5814V21.3953H3.72093V23.2558H1.86047V3.25581H3.72093Z" fill="black"/>
<path fill-rule="evenodd" clip-rule="evenodd" d="M3.72106 3.25581V5.11628H5.58153V6.97674H7.44199V8.83721H9.30246V10.6977H11.1629V12.5581H13.0234V14.4186H14.8839V16.2791H16.7443V18.1395H11.1629V21.3953H13.0234V25.1163H14.8839V28.8372H16.7443V32.5581H13.0234V28.8372H11.1629V25.1163H9.30246V21.3953H7.44199V19.5349H5.58153V21.3953H3.72106V23.2558H1.8606V3.25581H3.72106Z" fill="#D5D3D7"/>
<path d="M3.72106 5.11628V3.25581H1.8606V23.2558H3.72106V21.3953H5.58153V19.5349H7.44199V21.3953H9.30246V25.1163H11.1629V28.8372H13.0234V32.5581H16.7443V28.8372H14.8839V25.1163H13.0234V21.3953H11.1629V18.1395H16.7443V16.2791H14.8839V14.4186H13.0234V12.5581H11.1629V10.6977H9.30246V8.83721H7.44199V6.97674H5.58153V5.11628H3.72106Z" fill="#D5D3D7"/>
</svg>
