<svg width="216" height="24" viewBox="0 0 216 24" fill="none" xmlns="http://www.w3.org/2000/svg">
<g clip-path="url(#clip0_104_93)">
<rect x="8" y="19" width="14" height="2" transform="rotate(-90 8 19)" fill="black"/>
<rect x="10" y="7" width="2" height="2" transform="rotate(-90 10 7)" fill="black"/>
<rect x="11" y="8" width="2" height="2" transform="rotate(-90 11 8)" fill="black"/>
<rect x="12" y="9" width="2" height="2" transform="rotate(-90 12 9)" fill="black"/>
<rect x="10" y="19" width="2" height="2" transform="rotate(-90 10 19)" fill="black"/>
<rect x="11" y="18" width="2" height="2" transform="rotate(-90 11 18)" fill="black"/>
<rect x="12" y="17" width="2" height="2" transform="rotate(-90 12 17)" fill="black"/>
<rect x="13" y="16" width="2" height="2" transform="rotate(-90 13 16)" fill="black"/>
<rect x="13" y="10" width="2" height="2" transform="rotate(-90 13 10)" fill="black"/>
<rect x="14" y="15" width="2" height="2" transform="rotate(-90 14 15)" fill="black"/>
<rect x="14" y="11" width="2" height="2" transform="rotate(-90 14 11)" fill="black"/>
<rect x="15" y="12" width="2" height="2" transform="rotate(-90 15 12)" fill="black"/>
<rect x="16" y="13" width="2" height="2" transform="rotate(-90 16 13)" fill="black"/>
<rect x="15" y="14" width="2" height="2" transform="rotate(-90 15 14)" fill="black"/>
<rect width="14" height="2" transform="matrix(4.37114e-08 -1 -1 -4.37114e-08 34 19)" fill="black"/>
<rect width="14" height="2" transform="matrix(4.37114e-08 -1 -1 -4.37114e-08 40 19)" fill="black"/>
<rect width="14" height="2" transform="matrix(4.37114e-08 -1 -1 -4.37114e-08 67 19)" fill="black"/>
<rect width="14" height="2" transform="matrix(4.37114e-08 -1 -1 -4.37114e-08 55 19)" fill="black"/>
<rect width="2" height="2" transform="matrix(4.37114e-08 -1 -1 -4.37114e-08 65 7)" fill="black"/>
<rect width="2" height="2" transform="matrix(4.37114e-08 -1 -1 -4.37114e-08 64 8)" fill="black"/>
<rect width="2" height="2" transform="matrix(4.37114e-08 -1 -1 -4.37114e-08 63 9)" fill="black"/>
<rect width="2" height="2" transform="matrix(4.37114e-08 -1 -1 -4.37114e-08 65 19)" fill="black"/>
<rect width="2" height="2" transform="matrix(4.37114e-08 -1 -1 -4.37114e-08 64 18)" fill="black"/>
<rect width="2" height="2" transform="matrix(4.37114e-08 -1 -1 -4.37114e-08 63 17)" fill="black"/>
<rect width="2" height="2" transform="matrix(4.37114e-08 -1 -1 -4.37114e-08 62 16)" fill="black"/>
<rect width="2" height="2" transform="matrix(4.37114e-08 -1 -1 -4.37114e-08 62 10)" fill="black"/>
<rect width="2" height="2" transform="matrix(4.37114e-08 -1 -1 -4.37114e-08 61 15)" fill="black"/>
<rect width="2" height="2" transform="matrix(4.37114e-08 -1 -1 -4.37114e-08 61 11)" fill="black"/>
<rect width="2" height="2" transform="matrix(4.37114e-08 -1 -1 -4.37114e-08 60 12)" fill="black"/>
<rect width="2" height="2" transform="matrix(4.37114e-08 -1 -1 -4.37114e-08 59 13)" fill="black"/>
<rect width="2" height="2" transform="matrix(4.37114e-08 -1 -1 -4.37114e-08 60 14)" fill="black"/>
<rect x="77" y="19" width="14" height="2" transform="rotate(-90 77 19)" fill="black"/>
<rect x="89" y="19" width="14" height="2" transform="rotate(-90 89 19)" fill="black"/>
<rect x="79" y="7" width="2" height="2" transform="rotate(-90 79 7)" fill="black"/>
<rect x="80" y="8" width="2" height="2" transform="rotate(-90 80 8)" fill="black"/>
<rect x="81" y="9" width="2" height="2" transform="rotate(-90 81 9)" fill="black"/>
<rect x="79" y="19" width="2" height="2" transform="rotate(-90 79 19)" fill="black"/>
<rect x="80" y="18" width="2" height="2" transform="rotate(-90 80 18)" fill="black"/>
<rect x="81" y="17" width="2" height="2" transform="rotate(-90 81 17)" fill="black"/>
<rect x="82" y="16" width="2" height="2" transform="rotate(-90 82 16)" fill="black"/>
<rect x="82" y="10" width="2" height="2" transform="rotate(-90 82 10)" fill="black"/>
<rect x="83" y="15" width="2" height="2" transform="rotate(-90 83 15)" fill="black"/>
<rect x="83" y="11" width="2" height="2" transform="rotate(-90 83 11)" fill="black"/>
<rect x="84" y="12" width="2" height="2" transform="rotate(-90 84 12)" fill="black"/>
<rect x="85" y="13" width="2" height="2" transform="rotate(-90 85 13)" fill="black"/>
<rect x="84" y="14" width="2" height="2" transform="rotate(-90 84 14)" fill="black"/>
<path fill-rule="evenodd" clip-rule="evenodd" d="M112 2H110V4H112V6H100V8H98V13H100V8H112V10H110V12H112V10H114V8H116V6H114V4H112V2ZM102 20H104V22H106V20H104V18H116V16H118V11H116V16H104V14H106V12H104V14H102V16H100V18H102V20Z" fill="black"/>
<rect x="135" y="7" width="2" height="2" fill="black"/>
<rect x="137" y="15" width="2" height="2" transform="rotate(90 137 15)" fill="black"/>
<rect x="133" y="9" width="2" height="2" fill="black"/>
<rect x="131" y="11" width="2" height="2" fill="black"/>
<rect x="133" y="11" width="2" height="2" transform="rotate(90 133 11)" fill="black"/>
<rect x="127" y="15" width="2" height="2" fill="black"/>
<rect x="129" y="7" width="2" height="2" transform="rotate(90 129 7)" fill="black"/>
<rect x="129" y="13" width="2" height="2" fill="black"/>
<rect x="125" y="17" width="2" height="2" fill="black"/>
<rect x="127" y="5" width="2" height="2" transform="rotate(90 127 5)" fill="black"/>
<rect x="124" y="18" width="2" height="2" fill="black"/>
<rect x="126" y="4" width="2" height="2" transform="rotate(90 126 4)" fill="black"/>
<rect x="130" y="12" width="2" height="2" fill="black"/>
<rect x="126" y="16" width="2" height="2" fill="black"/>
<rect x="128" y="6" width="2" height="2" transform="rotate(90 128 6)" fill="black"/>
<rect x="132" y="10" width="2" height="2" fill="black"/>
<rect x="128" y="14" width="2" height="2" fill="black"/>
<rect x="130" y="8" width="2" height="2" transform="rotate(90 130 8)" fill="black"/>
<rect x="134" y="8" width="2" height="2" fill="black"/>
<rect x="136" y="14" width="2" height="2" transform="rotate(90 136 14)" fill="black"/>
<rect x="136" y="6" width="2" height="2" fill="black"/>
<rect x="138" y="16" width="2" height="2" transform="rotate(90 138 16)" fill="black"/>
<rect x="137" y="5" width="2" height="2" fill="black"/>
<rect x="139" y="17" width="2" height="2" transform="rotate(90 139 17)" fill="black"/>
<rect x="134" y="4" width="6" height="2" fill="black"/>
<rect x="140" y="14" width="6" height="2" transform="rotate(90 140 14)" fill="black"/>
<rect x="138" y="10" width="6" height="2" transform="rotate(-90 138 10)" fill="black"/>
<rect x="134" y="18" width="6" height="2" fill="black"/>
<rect x="148" y="6" width="16" height="2" fill="black"/>
<rect x="148" y="11" width="16" height="2" fill="black"/>
<rect x="148" y="16" width="9" height="2" fill="black"/>
<rect width="0.999999" height="5" transform="matrix(1 1.74846e-07 1.74846e-07 -1 159 20)" fill="black"/>
<rect width="1" height="4" transform="matrix(-4.37114e-08 1 1 4.37114e-08 160 15)" fill="black"/>
<rect width="1" height="4" transform="matrix(-4.37114e-08 1 1 4.37114e-08 160 16)" fill="black"/>
<rect width="0.999999" height="5" transform="matrix(1 1.74846e-07 1.74846e-07 -1 163 20)" fill="black"/>
<rect width="1" height="1" transform="matrix(1 1.74846e-07 1.74846e-07 -1 158 21)" fill="black"/>
<rect width="1" height="1" transform="matrix(1 1.74846e-07 1.74846e-07 -1 162 21)" fill="black"/>
<rect width="1" height="1" transform="matrix(1 1.74846e-07 1.74846e-07 -1 157 21)" fill="black"/>
<rect width="1" height="1" transform="matrix(1 1.74846e-07 1.74846e-07 -1 161 21)" fill="black"/>
<rect width="1" height="1" transform="matrix(1 1.74846e-07 1.74846e-07 -1 157 20)" fill="black"/>
<rect width="1" height="1" transform="matrix(1 1.74846e-07 1.74846e-07 -1 161 20)" fill="black"/>
<rect width="1" height="1" transform="matrix(1 1.74846e-07 1.74846e-07 -1 157 19)" fill="black"/>
<rect width="1" height="1" transform="matrix(1 1.74846e-07 1.74846e-07 -1 161 19)" fill="black"/>
<rect width="1" height="1" transform="matrix(1 1.74846e-07 1.74846e-07 -1 159 19)" fill="black"/>
<rect width="1" height="1" transform="matrix(1 1.74846e-07 1.74846e-07 -1 163 19)" fill="black"/>
<rect width="1" height="1" transform="matrix(1 1.74846e-07 1.74846e-07 -1 159 21)" fill="black"/>
<rect width="1" height="1" transform="matrix(1 1.74846e-07 1.74846e-07 -1 163 21)" fill="black"/>
<rect width="1" height="1" transform="matrix(1 1.74846e-07 1.74846e-07 -1 158 19)" fill="black"/>
<rect width="1" height="1" transform="matrix(1 1.74846e-07 1.74846e-07 -1 162 19)" fill="black"/>
<rect x="173" y="9" width="6" height="2" transform="rotate(90 173 9)" fill="black"/>
<rect width="2" height="2" transform="matrix(-4.37114e-08 1 1 4.37114e-08 175 4)" fill="black"/>
<rect width="2" height="2" transform="matrix(-4.37114e-08 1 1 4.37114e-08 172 7)" fill="black"/>
<rect width="2" height="2" transform="matrix(-4.37114e-08 1 1 4.37114e-08 173 5)" fill="black"/>
<rect x="187" y="5" width="2" height="2" transform="rotate(90 187 5)" fill="black"/>
<rect x="185" y="4" width="2" height="2" transform="rotate(90 185 4)" fill="black"/>
<rect x="188" y="7" width="2" height="2" transform="rotate(90 188 7)" fill="black"/>
<rect width="2" height="2" transform="matrix(4.37114e-08 -1 -1 -4.37114e-08 187 19)" fill="black"/>
<rect width="2" height="2" transform="matrix(4.37114e-08 -1 -1 -4.37114e-08 185 20)" fill="black"/>
<rect width="2" height="2" transform="matrix(4.37114e-08 -1 -1 -4.37114e-08 188 17)" fill="black"/>
<rect x="175" y="20" width="2" height="2" transform="rotate(-90 175 20)" fill="black"/>
<rect x="172" y="14" width="2" height="2" transform="rotate(-90 172 14)" fill="black"/>
<rect x="170" y="14" width="2" height="2" transform="rotate(-90 170 14)" fill="black"/>
<rect x="173" y="13" width="2" height="2" transform="rotate(-90 173 13)" fill="black"/>
<rect x="169" y="13" width="2" height="2" transform="rotate(-90 169 13)" fill="black"/>
<rect x="189" y="9" width="6" height="2" transform="rotate(90 189 9)" fill="black"/>
<rect x="177" y="3" width="6" height="2" fill="black"/>
<rect x="177" y="19" width="6" height="2" fill="black"/>
<path d="M180 8L180 15.4286L180 16" stroke="black" stroke-linejoin="bevel"/>
<path d="M179 10H180V9H179V10Z" fill="black"/>
<path d="M179 10H180V9H179V10Z" fill="black"/>
<path d="M179 11H180V10H179V11Z" fill="black"/>
<path d="M178 10H179V9H178V10Z" fill="black"/>
<path d="M178 11H179V10H178V11Z" fill="black"/>
<path d="M177 11H178V10H177V11Z" fill="black"/>
<path d="M179 9H180V8H179V9Z" fill="black"/>
<rect x="197.5" y="5.5" width="2" height="2" fill="black"/>
<rect x="198.5" y="6.5" width="2" height="2" fill="black"/>
<rect x="199.5" y="7.5" width="2" height="2" fill="black"/>
<rect x="200.5" y="8.5" width="2" height="2" fill="black"/>
<rect x="205.5" y="13.5" width="2" height="2" fill="black"/>
<rect x="206.5" y="14.5" width="2" height="2" fill="black"/>
<rect x="207.5" y="15.5" width="2" height="2" fill="black"/>
<rect x="208.5" y="16.5" width="2" height="2" fill="black"/>
<rect x="201.5" y="9.5" width="2" height="2" fill="black"/>
<rect x="204.5" y="12.5" width="2" height="2" fill="black"/>
<rect x="210.5" y="5.5" width="2" height="2" transform="rotate(90 210.5 5.5)" fill="black"/>
<rect x="209.5" y="6.5" width="2" height="2" transform="rotate(90 209.5 6.5)" fill="black"/>
<rect x="208.5" y="7.5" width="2" height="2" transform="rotate(90 208.5 7.5)" fill="black"/>
<rect x="207.5" y="8.5" width="2" height="2" transform="rotate(90 207.5 8.5)" fill="black"/>
<rect x="202.5" y="13.5" width="2" height="2" transform="rotate(90 202.5 13.5)" fill="black"/>
<rect x="201.5" y="14.5" width="2" height="2" transform="rotate(90 201.5 14.5)" fill="black"/>
<rect x="200.5" y="15.5" width="2" height="2" transform="rotate(90 200.5 15.5)" fill="black"/>
<rect x="199.5" y="16.5" width="2" height="2" transform="rotate(90 199.5 16.5)" fill="black"/>
<rect x="206.5" y="9.5" width="2" height="2" transform="rotate(90 206.5 9.5)" fill="black"/>
<rect x="204.5" y="11.5" width="2" height="2" transform="rotate(90 204.5 11.5)" fill="black"/>
<rect x="205.5" y="10.5" width="2" height="2" transform="rotate(90 205.5 10.5)" fill="black"/>
<rect x="203.5" y="12.5" width="2" height="2" transform="rotate(90 203.5 12.5)" fill="black"/>
</g>
<defs>
<clipPath id="clip0_104_93">
<rect width="216" height="24" fill="white"/>
</clipPath>
</defs>
</svg>
